<?xml version="1.0" encoding="UTF-8"?>
<!DOCTYPE svg PUBLIC "-//W3C//DTD SVG 1.1//EN" "http://www.w3.org/Graphics/SVG/1.1/DTD/svg11.dtd">
<!-- Creator: CorelDRAW -->
<svg xmlns="http://www.w3.org/2000/svg" xml:space="preserve" width="2048px" height="2048px" style="shape-rendering:geometricPrecision; text-rendering:geometricPrecision; image-rendering:optimizeQuality; fill-rule:evenodd; clip-rule:evenodd"
viewBox="0 0 2048 2048"
 xmlns:xlink="http://www.w3.org/1999/xlink">
 <defs>
  <style type="text/css">
   <![CDATA[
    .fil1 {fill:none}
    .fil0 {fill:#424242}
    .fil2 {fill:white;fill-rule:nonzero}
   ]]>
  </style>
 </defs>
 <rect class="fil0" width="2048" height="2048"/>
 <g id="Layer_x0020_1">
  <metadata id="CorelCorpID_0Corel-Layer"/>
  <rect class="fil1" width="2048" height="2048"/>
  <rect class="fil1" x="255.999" y="255.999" width="1536" height="1536"/>
  <rect class="fil1" x="255.999" y="255.999" width="1536" height="1536"/>
  <path class="fil2" d="M914.486 651.738c-28.0181,28.017 -45.3449,66.7359 -45.3449,109.523 0,42.7914 17.2866,81.469 45.2374,109.395 28.0134,27.9886 66.7678,45.3071 109.63,45.3071 42.8611,0 81.6107,-17.3173 109.619,-45.3036 27.9484,-27.9272 45.2315,-66.6048 45.2315,-109.399 0,-42.789 -17.3232,-81.5091 -45.3378,-109.525 -28.0158,-28.0181 -66.73,-45.3437 -109.513,-45.3437 -42.7831,0 -81.5032,17.3268 -109.523,45.3461zm404.515 -176.661c75.4855,75.489 122.169,179.791 122.169,295.009 0,82.5461 -55.9158,206.815 -127.637,332.264 -73.5319,128.617 -163.161,257.145 -227.887,345.487 -7.18938,9.83505 -16.5331,17.687 -27.1607,23.0929 -10.4941,5.33741 -22.2721,8.23229 -34.4764,8.23229 -12.1465,0 -23.9244,-2.90197 -34.4433,-8.25237 -10.6406,-5.413 -20.0055,-13.2567 -27.1925,-23.0729 -64.7339,-88.343 -154.369,-216.872 -227.902,-345.487 -71.7237,-125.45 -127.639,-249.718 -127.639,-332.264 0,-115.207 46.6914,-219.507 122.183,-294.998 75.4879,-75.4879 179.783,-122.18 294.995,-122.18 115.223,0 219.51,46.6867 294.992,122.17z"/>
  <path class="fil2" d="M1389.28 1163.06c53.0268,13.5165 101.787,29.876 145.148,48.6 139.369,60.1808 225.573,146.384 225.573,244.335 0,97.9513 -86.204,184.154 -225.573,244.335 -131.154,56.6351 -311.662,91.6654 -510.428,91.6654 -198.768,0 -379.274,-35.0303 -510.429,-91.6654 -139.369,-60.1808 -225.573,-146.384 -225.573,-244.335 0,-97.9513 86.204,-184.154 225.573,-244.335 43.3618,-18.724 92.1213,-35.0835 145.148,-48.6 11.1437,19.2402 22.5437,38.38 34.1693,57.417 -56.8359,13.4835 -108.679,30.3343 -154.068,49.9335 -115.426,49.8426 -186.821,115.643 -186.821,185.584 0,69.9414 71.3953,135.742 186.821,185.584 123.641,53.3906 295.139,86.4142 485.18,86.4142 190.041,0 361.538,-33.0236 485.178,-86.4142 115.426,-49.8426 186.821,-115.643 186.821,-185.584 0,-69.9414 -71.3953,-135.742 -186.821,-185.584 -45.3886,-19.5992 -97.232,-36.45 -154.069,-49.9347 11.6256,-19.0358 23.0256,-38.1744 34.1705,-57.4158z"/>
 </g>
</svg>
