<svg xmlns="http://www.w3.org/2000/svg" xml:space="preserve" width="655.359" height="655.359" style="shape-rendering:geometricPrecision;text-rendering:geometricPrecision;image-rendering:optimizeQuality;fill-rule:evenodd;clip-rule:evenodd" viewBox="0 0 6.827 6.827"><defs><style>.fil1{fill:none}.fil2{fill:#fffffe;fill-rule:nonzero}</style></defs><path style="fill:#424242" d="M0 0h6.827v6.827H0z"/><g id="Layer_x0020_1"><g id="_377757376"><path id="_377756992" class="fil1" d="M0 0h6.827v6.827H0z"/><path id="_377756848" class="fil1" d="M.853.853h5.12v5.12H.853z"/></g><g id="_377756032"><path id="_377757016" class="fil2" d="M.962.856H5.971V5.97H.855V.856h.107zm4.796.213h-4.69v4.69h4.69v-4.69z"/><path id="_377756560" class="fil2" d="M4.143.954c.026.317.066.63.106.94.2 1.559.395 3.084-1.205 4.062l-.11-.182c1.482-.906 1.295-2.363 1.104-3.854-.04-.32-.082-.64-.107-.95l.212-.016z"/><path id="_377756464" class="fil2" d="M3.453.95c.02.258.049.513.077.767.177 1.619.354 3.226-1.304 4.239l-.11-.182c1.542-.942 1.372-2.483 1.202-4.035-.029-.26-.057-.52-.078-.773L3.453.95z"/><path id="_377756296" class="fil2" d="M4.354 3.106c.195.234.346.334.49.43.31.204.587.386 1.118 1.6l-.195.086c-.506-1.157-.758-1.323-1.04-1.51a2.13 2.13 0 0 1-.536-.47l.163-.136z"/><path id="_377756512" class="fil2" d="m5.874 2.484-.585.045c-1.67.12-3.527.254-4.228 2.004l-.198-.08c.75-1.873 2.678-2.012 4.41-2.137.193-.014.384-.028.582-.045l.019.213z"/><path id="_377756368" class="fil2" d="M1.787.962v4.903h-.213V.962z"/></g></g></svg>