<?xml version="1.0" encoding="UTF-8"?>
<!DOCTYPE svg PUBLIC "-//W3C//DTD SVG 1.1//EN" "http://www.w3.org/Graphics/SVG/1.1/DTD/svg11.dtd">
<!-- Creator: CorelDRAW -->
<svg xmlns="http://www.w3.org/2000/svg" xml:space="preserve" width="2048px" height="2048px" style="shape-rendering:geometricPrecision; text-rendering:geometricPrecision; image-rendering:optimizeQuality; fill-rule:evenodd; clip-rule:evenodd"
viewBox="0 0 2048 2048"
 xmlns:xlink="http://www.w3.org/1999/xlink">
 <defs>
  <style type="text/css">
   <![CDATA[
    .fil1 {fill:none}
    .fil0 {fill:#424242}
    .fil2 {fill:white;fill-rule:nonzero}
   ]]>
  </style>
 </defs>
 <rect class="fil0" width="2048" height="2048"/>
 <g id="Layer_x0020_1">
  <metadata id="CorelCorpID_0Corel-Layer"/>
  <rect class="fil1" width="2048" height="2048"/>
  <rect class="fil1" x="255.999" y="255.999" width="1536" height="1536"/>
  <rect class="fil1" x="255.999" y="255.999" width="1536" height="1536"/>
  <path class="fil2" d="M1039.92 1145.96c0,-86.5725 35.2087,-165.066 92.0528,-221.91 56.8453,-56.8441 135.341,-92.0516 221.915,-92.0516 86.5725,0 165.067,35.2075 221.912,92.0505 56.843,56.8453 92.0505,135.339 92.0505,221.912 0,24.9295 -2.94095,49.2296 -8.48977,72.567 -5.63741,23.7083 -14.0681,46.5378 -24.9284,68.1201l-251.794 519.226 -28.7516 59.2867 -28.7492 -59.2867 -251.842 -519.335c-10.8473,-21.5681 -19.265,-44.3717 -24.8929,-68.0504 -5.54528,-23.3256 -8.48268,-47.6115 -8.48268,-72.528zm313.968 124.028c34.187,0 65.1945,-13.9146 87.6579,-36.3756 22.4646,-22.4646 36.3803,-53.4709 36.3803,-87.652 0,-34.1882 -13.9134,-65.1993 -36.378,-87.6638 -22.4646,-22.4646 -53.4733,-36.3792 -87.6603,-36.3792l-0.00236221 0c-34.187,0 -65.1969,13.9158 -87.6615,36.3803 -22.5425,22.5425 -36.5055,53.5583 -36.5055,87.6603l0.125197 0 0 0.00236221c0,34.1799 13.9169,65.1863 36.3827,87.6509 22.4646,22.4622 53.4733,36.3768 87.6615,36.3768z"/>
  <path class="fil2" d="M554.928 223.999c48.1937,0 91.8922,19.6004 123.534,51.2422 31.6418,31.6418 51.2422,75.339 51.2422,123.533 0,13.8555 -1.63937,27.3792 -4.73032,40.3855 -3.10276,13.0559 -7.7752,25.7055 -13.8083,37.7398l-127.487 262.898 -28.7504 59.2902 -28.7504 -59.2902 -127.491 -262.923c-6.0378,-12.013 -10.7055,-24.6543 -13.8095,-37.7091 -3.09213,-13.0087 -4.72914,-26.537 -4.72914,-40.3914 0,-48.1937 19.6004,-91.891 51.2433,-123.533 31.6429,-31.6418 75.3426,-51.2422 123.536,-51.2422z"/>
  <path class="fil2" d="M658.87 709.412c1.16693,0.457087 3.07087,1.16575 7.40788,2.82638 64.1528,24.5457 258.986,99.0946 252.416,306.839l-0.00472441 0c-1.0063,31.5685 -9.30119,59.9611 -17.589,88.3217 -3.00355,10.2827 -6.00945,20.563 -8.78387,31.8626 -8.40473,34.1764 -13.2815,69.3804 -12.2882,103.91 0.966142,33.6189 7.50709,66.8079 21.8386,97.9973 5.78622,12.5976 13.2012,24.587 22.0099,35.7862 8.92205,11.3445 19.1162,21.6 30.3449,30.5918 26.5961,21.3106 57.8918,36.3449 91.0701,46.9784 34.2307,10.9689 70.5851,17.2831 106.063,20.9386 0.948426,0.0992127 4.46457,0.37441 9.98505,0.8563l0.190158 0.0165354 -5.49922 63.7512 -0.190158 -0.0165354c-1.47047,-0.127559 -3.05315,-0.270473 -10.9866,-1.10669 -39.3272,-4.05237 -80.0091,-11.1732 -119.062,-23.6882 -40.102,-12.8528 -78.3485,-31.3607 -111.569,-57.9792 -15.1441,-12.1276 -28.7823,-25.8201 -40.5969,-40.8414 -11.6162,-14.7685 -21.6366,-31.1032 -29.7579,-48.7878 -18.1299,-39.4548 -26.3894,-80.98 -27.5906,-122.746 -1.17638,-40.8555 4.40197,-81.7229 14.0386,-120.911 2.66339,-10.8496 6.1004,-22.6063 9.53505,-34.3618 7.17756,-24.5646 14.3658,-49.1575 15.0921,-72.4477l0 -0.125197c5.13071,-162.232 -157.774,-224.564 -211.415,-245.088 -1.35,-0.516142 -2.24292,-0.855119 -7.90867,-3.07677l23.2512 -59.4993z"/>
 </g>
</svg>
